solid OpenSCAD_Model
  facet normal 0 1 -0
    outer loop
      vertex 54.5 33.7 36.2935
      vertex 52.5 33.7 38
      vertex 54.5 33.7 38
    endloop
  endfacet
  facet normal 0 1 0
    outer loop
      vertex 52.5 33.7 29.605
      vertex 54.5 33.7 36.2935
      vertex 54.5 33.7 29.605
    endloop
  endfacet
  facet normal 0 1 0
    outer loop
      vertex 54.5 33.7 36.2935
      vertex 52.5 33.7 29.605
      vertex 52.5 33.7 38
    endloop
  endfacet
  facet normal -0 0 1
    outer loop
      vertex 52.5 95.12 29.605
      vertex 54.5 33.7 29.605
      vertex 54.5 95.12 29.605
    endloop
  endfacet
  facet normal 0 0 1
    outer loop
      vertex 54.5 33.7 29.605
      vertex 52.5 95.12 29.605
      vertex 52.5 33.7 29.605
    endloop
  endfacet
  facet normal 0 -1 0
    outer loop
      vertex 52.5 95.12 38
      vertex 54.5 95.12 36.2935
      vertex 54.5 95.12 38
    endloop
  endfacet
  facet normal 0 -1 0
    outer loop
      vertex 52.5 95.12 29.605
      vertex 54.5 95.12 36.2935
      vertex 52.5 95.12 38
    endloop
  endfacet
  facet normal 0 -1 -0
    outer loop
      vertex 54.5 95.12 36.2935
      vertex 52.5 95.12 29.605
      vertex 54.5 95.12 29.605
    endloop
  endfacet
  facet normal 0 0.999505 -0.0314602
    outer loop
      vertex 54.5 131.496 4.46814
      vertex 52.5 131.5 4.6
      vertex 54.5 131.5 4.6
    endloop
  endfacet
  facet normal 0 0.999505 -0.0314602
    outer loop
      vertex 52.5 131.5 4.6
      vertex 54.5 131.496 4.46814
      vertex 52.5 131.496 4.46814
    endloop
  endfacet
  facet normal 0 0.338722 -0.940886
    outer loop
      vertex 52.5 130.049 2.60278
      vertex 54.5 130.173 2.64747
      vertex 54.5 130.049 2.60278
    endloop
  endfacet
  facet normal 0 0.338722 -0.940886
    outer loop
      vertex 54.5 130.173 2.64747
      vertex 52.5 130.049 2.60278
      vertex 52.5 130.173 2.64747
    endloop
  endfacet
  facet normal -0 0.0314008 0.999507
    outer loop
      vertex 52.5 129.532 37.9959
      vertex 54.5 129.4 38
      vertex 54.5 129.532 37.9959
    endloop
  endfacet
  facet normal 0 0.0314008 0.999507
    outer loop
      vertex 54.5 129.4 38
      vertex 52.5 129.532 37.9959
      vertex 52.5 129.4 38
    endloop
  endfacet
  facet normal 0 0 -1
    outer loop
      vertex 52.5 4.6 2.5
      vertex 54.5 129.4 2.5
      vertex 54.5 4.6 2.5
    endloop
  endfacet
  facet normal -0 0 -1
    outer loop
      vertex 54.5 129.4 2.5
      vertex 52.5 4.6 2.5
      vertex 52.5 129.4 2.5
    endloop
  endfacet
  facet normal -0 0.278992 0.960294
    outer loop
      vertex 52.5 130.049 37.8972
      vertex 54.5 129.922 37.934
      vertex 54.5 130.049 37.8972
    endloop
  endfacet
  facet normal 0 0.278992 0.960294
    outer loop
      vertex 54.5 129.922 37.934
      vertex 52.5 130.049 37.8972
      vertex 52.5 129.922 37.934
    endloop
  endfacet
  facet normal 0 0.707139 -0.707074
    outer loop
      vertex 54.5 130.838 3.06917
      vertex 52.5 130.931 3.16245
      vertex 54.5 130.931 3.16245
    endloop
  endfacet
  facet normal 0 0.707139 -0.707074
    outer loop
      vertex 52.5 130.931 3.16245
      vertex 54.5 130.838 3.06917
      vertex 52.5 130.838 3.06917
    endloop
  endfacet
  facet normal -0 0 1
    outer loop
      vertex 52.5 33.7 38
      vertex 54.5 4.6 38
      vertex 54.5 33.7 38
    endloop
  endfacet
  facet normal 0 0 1
    outer loop
      vertex 54.5 4.6 38
      vertex 52.5 33.7 38
      vertex 52.5 4.6 38
    endloop
  endfacet
  facet normal -0 0 1
    outer loop
      vertex 52.5 129.4 38
      vertex 54.5 95.12 38
      vertex 54.5 129.4 38
    endloop
  endfacet
  facet normal 0 0 1
    outer loop
      vertex 54.5 95.12 38
      vertex 52.5 129.4 38
      vertex 52.5 95.12 38
    endloop
  endfacet
  facet normal 0 1 -0
    outer loop
      vertex 54.5 131.5 4.6
      vertex 52.5 131.5 35.9
      vertex 54.5 131.5 35.9
    endloop
  endfacet
  facet normal 0 1 0
    outer loop
      vertex 52.5 131.5 35.9
      vertex 54.5 131.5 4.6
      vertex 52.5 131.5 4.6
    endloop
  endfacet
  facet normal 1 0 0
    outer loop
      vertex 54.5 4.2065 37.9628
      vertex 54.5 4.07775 37.934
      vertex 54.5 2.5372 36.2935
    endloop
  endfacet
  facet normal 0 0.917783 -0.397082
    outer loop
      vertex 54.5 131.3 3.70586
      vertex 52.5 131.353 3.82694
      vertex 54.5 131.353 3.82694
    endloop
  endfacet
  facet normal 0 0.917783 -0.397082
    outer loop
      vertex 52.5 131.353 3.82694
      vertex 54.5 131.3 3.70586
      vertex 52.5 131.3 3.70586
    endloop
  endfacet
  facet normal 0 0.999505 0.0314595
    outer loop
      vertex 54.5 131.5 35.9
      vertex 52.5 131.496 36.0319
      vertex 54.5 131.496 36.0319
    endloop
  endfacet
  facet normal 0 0.999505 0.0314595
    outer loop
      vertex 52.5 131.496 36.0319
      vertex 54.5 131.5 35.9
      vertex 52.5 131.5 35.9
    endloop
  endfacet
  facet normal 0 -0.218147 -0.975916
    outer loop
      vertex 52.5 4.07775 2.56598
      vertex 54.5 4.2065 2.5372
      vertex 54.5 4.07775 2.56598
    endloop
  endfacet
  facet normal -0 -0.218147 -0.975916
    outer loop
      vertex 54.5 4.2065 2.5372
      vertex 52.5 4.07775 2.56598
      vertex 52.5 4.2065 2.5372
    endloop
  endfacet
  facet normal 1 -0 0
    outer loop
      vertex 54.5 2.5 35.9
      vertex 54.5 33.7 29.605
      vertex 54.5 33.7 36.2935
    endloop
  endfacet
  facet normal 1 0 0
    outer loop
      vertex 54.5 33.7 29.605
      vertex 54.5 2.5 4.6
      vertex 54.5 4.6 2.5
    endloop
  endfacet
  facet normal 1 0 0
    outer loop
      vertex 54.5 4.6 2.5
      vertex 54.5 2.5 4.6
      vertex 54.5 4.46814 2.50414
    endloop
  endfacet
  facet normal 1 0 0
    outer loop
      vertex 54.5 4.46814 2.50414
      vertex 54.5 2.5 4.6
      vertex 54.5 4.3368 2.51656
    endloop
  endfacet
  facet normal 1 0 0
    outer loop
      vertex 54.5 4.3368 2.51656
      vertex 54.5 2.5 4.6
      vertex 54.5 4.2065 2.5372
    endloop
  endfacet
  facet normal 1 0 0
    outer loop
      vertex 54.5 4.2065 2.5372
      vertex 54.5 2.5 4.6
      vertex 54.5 4.07775 2.56598
    endloop
  endfacet
  facet normal 1 0 0
    outer loop
      vertex 54.5 4.07775 2.56598
      vertex 54.5 2.5 4.6
      vertex 54.5 3.95106 2.60278
    endloop
  endfacet
  facet normal 1 0 0
    outer loop
      vertex 54.5 3.95106 2.60278
      vertex 54.5 2.5 4.6
      vertex 54.5 3.82694 2.64747
    endloop
  endfacet
  facet normal 1 0 0
    outer loop
      vertex 54.5 3.82694 2.64747
      vertex 54.5 2.5 4.6
      vertex 54.5 3.70586 2.69986
    endloop
  endfacet
  facet normal 1 0 0
    outer loop
      vertex 54.5 3.70586 2.69986
      vertex 54.5 2.5 4.6
      vertex 54.5 3.58832 2.75976
    endloop
  endfacet
  facet normal 1 0 0
    outer loop
      vertex 54.5 3.58832 2.75976
      vertex 54.5 2.5 4.6
      vertex 54.5 3.47476 2.82691
    endloop
  endfacet
  facet normal 1 0 0
    outer loop
      vertex 54.5 3.47476 2.82691
      vertex 54.5 2.5 4.6
      vertex 54.5 3.36565 2.90106
    endloop
  endfacet
  facet normal 1 0 0
    outer loop
      vertex 54.5 3.36565 2.90106
      vertex 54.5 2.5 4.6
      vertex 54.5 3.26141 2.98192
    endloop
  endfacet
  facet normal 1 0 0
    outer loop
      vertex 54.5 3.26141 2.98192
      vertex 54.5 2.5 4.6
      vertex 54.5 3.16245 3.06917
    endloop
  endfacet
  facet normal 1 0 0
    outer loop
      vertex 54.5 3.16245 3.06917
      vertex 54.5 2.5 4.6
      vertex 54.5 3.06917 3.16245
    endloop
  endfacet
  facet normal 1 0 0
    outer loop
      vertex 54.5 3.06917 3.16245
      vertex 54.5 2.5 4.6
      vertex 54.5 2.98192 3.26141
    endloop
  endfacet
  facet normal 1 0 0
    outer loop
      vertex 54.5 2.98192 3.26141
      vertex 54.5 2.5 4.6
      vertex 54.5 2.90106 3.36565
    endloop
  endfacet
  facet normal 1 0 0
    outer loop
      vertex 54.5 2.90106 3.36565
      vertex 54.5 2.5 4.6
      vertex 54.5 2.82691 3.47476
    endloop
  endfacet
  facet normal 1 0 0
    outer loop
      vertex 54.5 2.82691 3.47476
      vertex 54.5 2.5 4.6
      vertex 54.5 2.75976 3.58832
    endloop
  endfacet
  facet normal 1 0 0
    outer loop
      vertex 54.5 2.75976 3.58832
      vertex 54.5 2.5 4.6
      vertex 54.5 2.69986 3.70586
    endloop
  endfacet
  facet normal 1 0 0
    outer loop
      vertex 54.5 2.69986 3.70586
      vertex 54.5 2.5 4.6
      vertex 54.5 2.64747 3.82694
    endloop
  endfacet
  facet normal 1 0 0
    outer loop
      vertex 54.5 2.64747 3.82694
      vertex 54.5 2.5 4.6
      vertex 54.5 2.60278 3.95106
    endloop
  endfacet
  facet normal 1 0 0
    outer loop
      vertex 54.5 2.5 35.9
      vertex 54.5 33.7 36.2935
      vertex 54.5 2.5372 36.2935
    endloop
  endfacet
  facet normal 1 0 0
    outer loop
      vertex 54.5 33.7 29.605
      vertex 54.5 2.5 35.9
      vertex 54.5 2.5 4.6
    endloop
  endfacet
  facet normal 1 0 0
    outer loop
      vertex 54.5 2.5 35.9
      vertex 54.5 2.5372 36.2935
      vertex 54.5 2.51656 36.1632
    endloop
  endfacet
  facet normal 1 0 0
    outer loop
      vertex 54.5 2.60278 3.95106
      vertex 54.5 2.5 4.6
      vertex 54.5 2.56598 4.07775
    endloop
  endfacet
  facet normal 1 0 0
    outer loop
      vertex 54.5 2.5 35.9
      vertex 54.5 2.51656 36.1632
      vertex 54.5 2.50414 36.0319
    endloop
  endfacet
  facet normal 1 0 0
    outer loop
      vertex 54.5 2.56598 4.07775
      vertex 54.5 2.5 4.6
      vertex 54.5 2.5372 4.2065
    endloop
  endfacet
  facet normal 1 0 0
    outer loop
      vertex 54.5 2.5372 4.2065
      vertex 54.5 2.5 4.6
      vertex 54.5 2.51656 4.3368
    endloop
  endfacet
  facet normal 1 0 0
    outer loop
      vertex 54.5 2.51656 4.3368
      vertex 54.5 2.5 4.6
      vertex 54.5 2.50414 4.46814
    endloop
  endfacet
  facet normal 1 0 0
    outer loop
      vertex 54.5 131.463 36.2935
      vertex 54.5 131.5 35.9
      vertex 54.5 131.496 36.0319
    endloop
  endfacet
  facet normal 1 0 0
    outer loop
      vertex 54.5 131.5 35.9
      vertex 54.5 95.12 29.605
      vertex 54.5 131.5 4.6
    endloop
  endfacet
  facet normal 1 0 0
    outer loop
      vertex 54.5 131.463 36.2935
      vertex 54.5 131.496 36.0319
      vertex 54.5 131.483 36.1632
    endloop
  endfacet
  facet normal 1 0 -0
    outer loop
      vertex 54.5 129.4 2.5
      vertex 54.5 131.5 4.6
      vertex 54.5 95.12 29.605
    endloop
  endfacet
  facet normal 1 0 0
    outer loop
      vertex 54.5 131.5 35.9
      vertex 54.5 131.463 36.2935
      vertex 54.5 95.12 36.2935
    endloop
  endfacet
  facet normal 1 0 0
    outer loop
      vertex 54.5 131.496 4.46814
      vertex 54.5 129.4 2.5
      vertex 54.5 131.483 4.3368
    endloop
  endfacet
  facet normal 1 0 0
    outer loop
      vertex 54.5 131.483 4.3368
      vertex 54.5 129.4 2.5
      vertex 54.5 131.463 4.2065
    endloop
  endfacet
  facet normal 1 0 0
    outer loop
      vertex 54.5 131.463 4.2065
      vertex 54.5 129.4 2.5
      vertex 54.5 131.434 4.07775
    endloop
  endfacet
  facet normal 1 0 0
    outer loop
      vertex 54.5 131.434 4.07775
      vertex 54.5 129.4 2.5
      vertex 54.5 131.397 3.95106
    endloop
  endfacet
  facet normal 1 0 0
    outer loop
      vertex 54.5 131.397 3.95106
      vertex 54.5 129.4 2.5
      vertex 54.5 131.353 3.82694
    endloop
  endfacet
  facet normal 1 0 0
    outer loop
      vertex 54.5 131.353 3.82694
      vertex 54.5 129.4 2.5
      vertex 54.5 131.3 3.70586
    endloop
  endfacet
  facet normal 1 0 0
    outer loop
      vertex 54.5 131.3 3.70586
      vertex 54.5 129.4 2.5
      vertex 54.5 131.24 3.58832
    endloop
  endfacet
  facet normal 1 0 0
    outer loop
      vertex 54.5 131.24 3.58832
      vertex 54.5 129.4 2.5
      vertex 54.5 131.173 3.47476
    endloop
  endfacet
  facet normal 1 0 0
    outer loop
      vertex 54.5 131.173 3.47476
      vertex 54.5 129.4 2.5
      vertex 54.5 131.099 3.36565
    endloop
  endfacet
  facet normal 1 0 0
    outer loop
      vertex 54.5 131.099 3.36565
      vertex 54.5 129.4 2.5
      vertex 54.5 131.018 3.26141
    endloop
  endfacet
  facet normal 1 0 0
    outer loop
      vertex 54.5 131.018 3.26141
      vertex 54.5 129.4 2.5
      vertex 54.5 130.931 3.16245
    endloop
  endfacet
  facet normal 1 0 0
    outer loop
      vertex 54.5 130.931 3.16245
      vertex 54.5 129.4 2.5
      vertex 54.5 130.838 3.06917
    endloop
  endfacet
  facet normal 1 0 0
    outer loop
      vertex 54.5 130.838 3.06917
      vertex 54.5 129.4 2.5
      vertex 54.5 130.739 2.98192
    endloop
  endfacet
  facet normal 1 0 0
    outer loop
      vertex 54.5 130.739 2.98192
      vertex 54.5 129.4 2.5
      vertex 54.5 130.634 2.90106
    endloop
  endfacet
  facet normal 1 0 0
    outer loop
      vertex 54.5 130.634 2.90106
      vertex 54.5 129.4 2.5
      vertex 54.5 130.525 2.82691
    endloop
  endfacet
  facet normal 1 0 0
    outer loop
      vertex 54.5 130.525 2.82691
      vertex 54.5 129.4 2.5
      vertex 54.5 130.412 2.75976
    endloop
  endfacet
  facet normal 1 0 0
    outer loop
      vertex 54.5 130.412 2.75976
      vertex 54.5 129.4 2.5
      vertex 54.5 130.294 2.69986
    endloop
  endfacet
  facet normal 1 0 0
    outer loop
      vertex 54.5 130.294 2.69986
      vertex 54.5 129.4 2.5
      vertex 54.5 130.173 2.64747
    endloop
  endfacet
  facet normal 1 0 0
    outer loop
      vertex 54.5 130.173 2.64747
      vertex 54.5 129.4 2.5
      vertex 54.5 130.049 2.60278
    endloop
  endfacet
  facet normal 1 0 0
    outer loop
      vertex 54.5 130.049 2.60278
      vertex 54.5 129.4 2.5
      vertex 54.5 129.922 2.56598
    endloop
  endfacet
  facet normal 1 0 0
    outer loop
      vertex 54.5 129.922 2.56598
      vertex 54.5 129.4 2.5
      vertex 54.5 129.794 2.5372
    endloop
  endfacet
  facet normal 1 0 0
    outer loop
      vertex 54.5 129.794 2.5372
      vertex 54.5 129.4 2.5
      vertex 54.5 129.663 2.51656
    endloop
  endfacet
  facet normal 1 0 0
    outer loop
      vertex 54.5 129.663 2.51656
      vertex 54.5 129.4 2.5
      vertex 54.5 129.532 2.50414
    endloop
  endfacet
  facet normal 1 0 0
    outer loop
      vertex 54.5 131.5 35.9
      vertex 54.5 95.12 36.2935
      vertex 54.5 95.12 29.605
    endloop
  endfacet
  facet normal 1 0 0
    outer loop
      vertex 54.5 131.5 4.6
      vertex 54.5 129.4 2.5
      vertex 54.5 131.496 4.46814
    endloop
  endfacet
  facet normal 1 0 0
    outer loop
      vertex 54.5 4.6 2.5
      vertex 54.5 95.12 29.605
      vertex 54.5 33.7 29.605
    endloop
  endfacet
  facet normal 1 0 0
    outer loop
      vertex 54.5 95.12 29.605
      vertex 54.5 4.6 2.5
      vertex 54.5 129.4 2.5
    endloop
  endfacet
  facet normal 1 0 0
    outer loop
      vertex 54.5 130.739 37.5181
      vertex 54.5 130.634 37.5989
      vertex 54.5 131.463 36.2935
    endloop
  endfacet
  facet normal 1 0 0
    outer loop
      vertex 54.5 129.922 37.934
      vertex 54.5 129.794 37.9628
      vertex 54.5 131.463 36.2935
    endloop
  endfacet
  facet normal 1 0 0
    outer loop
      vertex 54.5 130.173 37.8525
      vertex 54.5 130.049 37.8972
      vertex 54.5 131.463 36.2935
    endloop
  endfacet
  facet normal 1 0 0
    outer loop
      vertex 54.5 129.794 37.9628
      vertex 54.5 129.663 37.9834
      vertex 54.5 131.463 36.2935
    endloop
  endfacet
  facet normal 1 0 0
    outer loop
      vertex 54.5 95.12 36.2935
      vertex 54.5 129.4 38
      vertex 54.5 95.12 38
    endloop
  endfacet
  facet normal 1 0 0
    outer loop
      vertex 54.5 129.4 38
      vertex 54.5 95.12 36.2935
      vertex 54.5 131.463 36.2935
    endloop
  endfacet
  facet normal 1 -0 0
    outer loop
      vertex 54.5 4.6 38
      vertex 54.5 33.7 36.2935
      vertex 54.5 33.7 38
    endloop
  endfacet
  facet normal 1 0 0
    outer loop
      vertex 54.5 33.7 36.2935
      vertex 54.5 4.6 38
      vertex 54.5 2.5372 36.2935
    endloop
  endfacet
  facet normal 0 0.562073 -0.827087
    outer loop
      vertex 52.5 130.525 2.82691
      vertex 54.5 130.634 2.90106
      vertex 54.5 130.525 2.82691
    endloop
  endfacet
  facet normal 0 0.562073 -0.827087
    outer loop
      vertex 54.5 130.634 2.90106
      vertex 52.5 130.525 2.82691
      vertex 52.5 130.634 2.90106
    endloop
  endfacet
  facet normal 0 0.218162 -0.975913
    outer loop
      vertex 52.5 129.794 2.5372
      vertex 54.5 129.922 2.56598
      vertex 54.5 129.794 2.5372
    endloop
  endfacet
  facet normal 0 0.218162 -0.975913
    outer loop
      vertex 54.5 129.922 2.56598
      vertex 52.5 129.794 2.5372
      vertex 52.5 129.922 2.56598
    endloop
  endfacet
  facet normal 0 0.940869 0.33877
    outer loop
      vertex 54.5 131.397 36.5489
      vertex 52.5 131.353 36.6731
      vertex 54.5 131.353 36.6731
    endloop
  endfacet
  facet normal 0 0.940869 0.33877
    outer loop
      vertex 52.5 131.353 36.6731
      vertex 54.5 131.397 36.5489
      vertex 52.5 131.397 36.5489
    endloop
  endfacet
  facet normal 1 0 0
    outer loop
      vertex 54.5 131.3 36.7941
      vertex 54.5 131.24 36.9117
      vertex 54.5 131.463 36.2935
    endloop
  endfacet
  facet normal 0 0.960297 0.278981
    outer loop
      vertex 54.5 131.434 36.4222
      vertex 52.5 131.397 36.5489
      vertex 54.5 131.397 36.5489
    endloop
  endfacet
  facet normal 0 0.960297 0.278981
    outer loop
      vertex 52.5 131.397 36.5489
      vertex 54.5 131.434 36.4222
      vertex 52.5 131.434 36.4222
    endloop
  endfacet
  facet normal 0 -0.338731 -0.940883
    outer loop
      vertex 52.5 3.82694 2.64747
      vertex 54.5 3.95106 2.60278
      vertex 54.5 3.82694 2.64747
    endloop
  endfacet
  facet normal -0 -0.338731 -0.940883
    outer loop
      vertex 54.5 3.95106 2.60278
      vertex 52.5 3.82694 2.64747
      vertex 52.5 3.95106 2.60278
    endloop
  endfacet
  facet normal 1 0 0
    outer loop
      vertex 54.5 2.98192 37.2386
      vertex 54.5 2.90106 37.1343
      vertex 54.5 2.5372 36.2935
    endloop
  endfacet
  facet normal 1 0 0
    outer loop
      vertex 54.5 4.3368 37.9834
      vertex 54.5 4.2065 37.9628
      vertex 54.5 2.5372 36.2935
    endloop
  endfacet
  facet normal -0 0.218155 0.975914
    outer loop
      vertex 52.5 129.922 37.934
      vertex 54.5 129.794 37.9628
      vertex 54.5 129.922 37.934
    endloop
  endfacet
  facet normal 0 0.218155 0.975914
    outer loop
      vertex 54.5 129.794 37.9628
      vertex 52.5 129.922 37.934
      vertex 52.5 129.794 37.9628
    endloop
  endfacet
  facet normal 0 0.940869 -0.33877
    outer loop
      vertex 54.5 131.353 3.82694
      vertex 52.5 131.397 3.95106
      vertex 54.5 131.397 3.95106
    endloop
  endfacet
  facet normal 0 0.940869 -0.33877
    outer loop
      vertex 52.5 131.397 3.95106
      vertex 54.5 131.353 3.82694
      vertex 52.5 131.353 3.82694
    endloop
  endfacet
  facet normal 0 0.975918 -0.21814
    outer loop
      vertex 54.5 131.434 4.07775
      vertex 52.5 131.463 4.2065
      vertex 54.5 131.463 4.2065
    endloop
  endfacet
  facet normal 0 0.975918 -0.21814
    outer loop
      vertex 52.5 131.463 4.2065
      vertex 54.5 131.434 4.07775
      vertex 52.5 131.434 4.07775
    endloop
  endfacet
  facet normal 0 0.987679 -0.15649
    outer loop
      vertex 54.5 131.463 4.2065
      vertex 52.5 131.483 4.3368
      vertex 54.5 131.483 4.3368
    endloop
  endfacet
  facet normal 0 0.987679 -0.15649
    outer loop
      vertex 52.5 131.483 4.3368
      vertex 54.5 131.463 4.2065
      vertex 52.5 131.463 4.2065
    endloop
  endfacet
  facet normal 0 0.790161 -0.6129
    outer loop
      vertex 54.5 131.018 3.26141
      vertex 52.5 131.099 3.36565
      vertex 54.5 131.099 3.36565
    endloop
  endfacet
  facet normal 0 0.790161 -0.6129
    outer loop
      vertex 52.5 131.099 3.36565
      vertex 54.5 131.018 3.26141
      vertex 52.5 131.018 3.26141
    endloop
  endfacet
  facet normal 0 0.827118 -0.562029
    outer loop
      vertex 54.5 131.099 3.36565
      vertex 52.5 131.173 3.47476
      vertex 54.5 131.173 3.47476
    endloop
  endfacet
  facet normal 0 0.827118 -0.562029
    outer loop
      vertex 52.5 131.173 3.47476
      vertex 54.5 131.099 3.36565
      vertex 52.5 131.099 3.36565
    endloop
  endfacet
  facet normal 0 0.891013 -0.453979
    outer loop
      vertex 54.5 131.24 3.58832
      vertex 52.5 131.3 3.70586
      vertex 54.5 131.3 3.70586
    endloop
  endfacet
  facet normal 0 0.891013 -0.453979
    outer loop
      vertex 52.5 131.3 3.70586
      vertex 54.5 131.24 3.58832
      vertex 52.5 131.24 3.58832
    endloop
  endfacet
  facet normal 0 0.661272 -0.750146
    outer loop
      vertex 52.5 130.739 2.98192
      vertex 54.5 130.838 3.06917
      vertex 54.5 130.739 2.98192
    endloop
  endfacet
  facet normal 0 0.661272 -0.750146
    outer loop
      vertex 54.5 130.838 3.06917
      vertex 52.5 130.739 2.98192
      vertex 52.5 130.838 3.06917
    endloop
  endfacet
  facet normal 0 0.397181 -0.91774
    outer loop
      vertex 52.5 130.173 2.64747
      vertex 54.5 130.294 2.69986
      vertex 54.5 130.173 2.64747
    endloop
  endfacet
  facet normal 0 0.397181 -0.91774
    outer loop
      vertex 54.5 130.294 2.69986
      vertex 52.5 130.173 2.64747
      vertex 52.5 130.294 2.69986
    endloop
  endfacet
  facet normal 0 0.509036 -0.860745
    outer loop
      vertex 52.5 130.412 2.75976
      vertex 54.5 130.525 2.82691
      vertex 54.5 130.412 2.75976
    endloop
  endfacet
  facet normal 0 0.509036 -0.860745
    outer loop
      vertex 54.5 130.525 2.82691
      vertex 52.5 130.412 2.75976
      vertex 52.5 130.525 2.82691
    endloop
  endfacet
  facet normal 0 0.61294 -0.790129
    outer loop
      vertex 52.5 130.634 2.90106
      vertex 54.5 130.739 2.98192
      vertex 54.5 130.634 2.90106
    endloop
  endfacet
  facet normal 0 0.61294 -0.790129
    outer loop
      vertex 54.5 130.739 2.98192
      vertex 52.5 130.634 2.90106
      vertex 52.5 130.739 2.98192
    endloop
  endfacet
  facet normal 0 0.278978 -0.960297
    outer loop
      vertex 52.5 129.922 2.56598
      vertex 54.5 130.049 2.60278
      vertex 54.5 129.922 2.56598
    endloop
  endfacet
  facet normal 0 0.278978 -0.960297
    outer loop
      vertex 54.5 130.049 2.60278
      vertex 52.5 129.922 2.56598
      vertex 52.5 130.049 2.60278
    endloop
  endfacet
  facet normal 0 0.156423 -0.98769
    outer loop
      vertex 52.5 129.663 2.51656
      vertex 54.5 129.794 2.5372
      vertex 54.5 129.663 2.51656
    endloop
  endfacet
  facet normal 0 0.156423 -0.98769
    outer loop
      vertex 54.5 129.794 2.5372
      vertex 52.5 129.663 2.51656
      vertex 52.5 129.794 2.5372
    endloop
  endfacet
  facet normal 0 0.0314081 -0.999507
    outer loop
      vertex 52.5 129.4 2.5
      vertex 54.5 129.532 2.50414
      vertex 54.5 129.4 2.5
    endloop
  endfacet
  facet normal 0 0.0314081 -0.999507
    outer loop
      vertex 54.5 129.532 2.50414
      vertex 52.5 129.4 2.5
      vertex 52.5 129.532 2.50414
    endloop
  endfacet
  facet normal 0 0.975918 0.218137
    outer loop
      vertex 54.5 131.463 36.2935
      vertex 52.5 131.434 36.4222
      vertex 54.5 131.434 36.4222
    endloop
  endfacet
  facet normal 0 0.975918 0.218137
    outer loop
      vertex 52.5 131.434 36.4222
      vertex 54.5 131.463 36.2935
      vertex 52.5 131.463 36.2935
    endloop
  endfacet
  facet normal 0 0.790169 0.612889
    outer loop
      vertex 54.5 131.099 37.1343
      vertex 52.5 131.018 37.2386
      vertex 54.5 131.018 37.2386
    endloop
  endfacet
  facet normal 0 0.790169 0.612889
    outer loop
      vertex 52.5 131.018 37.2386
      vertex 54.5 131.099 37.1343
      vertex 52.5 131.099 37.1343
    endloop
  endfacet
  facet normal 0 -0.278992 -0.960293
    outer loop
      vertex 52.5 3.95106 2.60278
      vertex 54.5 4.07775 2.56598
      vertex 54.5 3.95106 2.60278
    endloop
  endfacet
  facet normal -0 -0.278992 -0.960293
    outer loop
      vertex 54.5 4.07775 2.56598
      vertex 52.5 3.95106 2.60278
      vertex 52.5 4.07775 2.56598
    endloop
  endfacet
  facet normal 0 -1 0
    outer loop
      vertex 52.5 2.5 4.6
      vertex 54.5 2.5 35.9
      vertex 52.5 2.5 35.9
    endloop
  endfacet
  facet normal 0 -1 -0
    outer loop
      vertex 54.5 2.5 35.9
      vertex 52.5 2.5 4.6
      vertex 54.5 2.5 4.6
    endloop
  endfacet
  facet normal 0 -0.707103 0.70711
    outer loop
      vertex 52.5 3.16245 37.4308
      vertex 54.5 3.06917 37.3375
      vertex 54.5 3.16245 37.4308
    endloop
  endfacet
  facet normal 0 -0.707103 0.70711
    outer loop
      vertex 54.5 3.06917 37.3375
      vertex 52.5 3.16245 37.4308
      vertex 52.5 3.06917 37.3375
    endloop
  endfacet
  facet normal -0 0.612931 0.790136
    outer loop
      vertex 52.5 130.739 37.5181
      vertex 54.5 130.634 37.5989
      vertex 54.5 130.739 37.5181
    endloop
  endfacet
  facet normal 0 0.612931 0.790136
    outer loop
      vertex 54.5 130.634 37.5989
      vertex 52.5 130.739 37.5181
      vertex 52.5 130.634 37.5989
    endloop
  endfacet
  facet normal -0 0.397187 0.917738
    outer loop
      vertex 52.5 130.294 37.8001
      vertex 54.5 130.173 37.8525
      vertex 54.5 130.294 37.8001
    endloop
  endfacet
  facet normal 0 0.397187 0.917738
    outer loop
      vertex 54.5 130.173 37.8525
      vertex 52.5 130.294 37.8001
      vertex 52.5 130.173 37.8525
    endloop
  endfacet
  facet normal -0 0.156423 0.98769
    outer loop
      vertex 52.5 129.794 37.9628
      vertex 54.5 129.663 37.9834
      vertex 54.5 129.794 37.9628
    endloop
  endfacet
  facet normal 0 0.156423 0.98769
    outer loop
      vertex 54.5 129.663 37.9834
      vertex 52.5 129.794 37.9628
      vertex 52.5 129.663 37.9834
    endloop
  endfacet
  facet normal 1 0 0
    outer loop
      vertex 54.5 4.46814 37.9959
      vertex 54.5 4.3368 37.9834
      vertex 54.5 2.5372 36.2935
    endloop
  endfacet
  facet normal 0 -0.21814 0.975918
    outer loop
      vertex 52.5 4.2065 37.9628
      vertex 54.5 4.07775 37.934
      vertex 54.5 4.2065 37.9628
    endloop
  endfacet
  facet normal 0 -0.21814 0.975918
    outer loop
      vertex 54.5 4.07775 37.934
      vertex 52.5 4.2065 37.9628
      vertex 52.5 4.07775 37.934
    endloop
  endfacet
  facet normal 1 0 0
    outer loop
      vertex 54.5 4.6 38
      vertex 54.5 4.46814 37.9959
      vertex 54.5 2.5372 36.2935
    endloop
  endfacet
  facet normal 0 0.960297 -0.278979
    outer loop
      vertex 54.5 131.397 3.95106
      vertex 52.5 131.434 4.07775
      vertex 54.5 131.434 4.07775
    endloop
  endfacet
  facet normal 0 0.960297 -0.278979
    outer loop
      vertex 52.5 131.434 4.07775
      vertex 54.5 131.397 3.95106
      vertex 52.5 131.397 3.95106
    endloop
  endfacet
  facet normal 0 0.995569 -0.094034
    outer loop
      vertex 54.5 131.483 4.3368
      vertex 52.5 131.496 4.46814
      vertex 54.5 131.496 4.46814
    endloop
  endfacet
  facet normal 0 0.995569 -0.094034
    outer loop
      vertex 52.5 131.496 4.46814
      vertex 54.5 131.483 4.3368
      vertex 52.5 131.483 4.3368
    endloop
  endfacet
  facet normal 0 0.750087 -0.66134
    outer loop
      vertex 54.5 130.931 3.16245
      vertex 52.5 131.018 3.26141
      vertex 54.5 131.018 3.26141
    endloop
  endfacet
  facet normal 0 0.750087 -0.66134
    outer loop
      vertex 52.5 131.018 3.26141
      vertex 54.5 130.931 3.16245
      vertex 52.5 130.931 3.16245
    endloop
  endfacet
  facet normal 0 0.860697 -0.509117
    outer loop
      vertex 54.5 131.173 3.47476
      vertex 52.5 131.24 3.58832
      vertex 54.5 131.24 3.58832
    endloop
  endfacet
  facet normal 0 0.860697 -0.509117
    outer loop
      vertex 52.5 131.24 3.58832
      vertex 54.5 131.173 3.47476
      vertex 52.5 131.173 3.47476
    endloop
  endfacet
  facet normal 0 0.453967 -0.891019
    outer loop
      vertex 52.5 130.294 2.69986
      vertex 54.5 130.412 2.75976
      vertex 54.5 130.294 2.69986
    endloop
  endfacet
  facet normal 0 0.453967 -0.891019
    outer loop
      vertex 54.5 130.412 2.75976
      vertex 52.5 130.294 2.69986
      vertex 52.5 130.412 2.75976
    endloop
  endfacet
  facet normal 0 0.0941111 -0.995562
    outer loop
      vertex 52.5 129.532 2.50414
      vertex 54.5 129.663 2.51656
      vertex 54.5 129.532 2.50414
    endloop
  endfacet
  facet normal 0 0.0941111 -0.995562
    outer loop
      vertex 54.5 129.663 2.51656
      vertex 52.5 129.532 2.50414
      vertex 52.5 129.663 2.51656
    endloop
  endfacet
  facet normal 0 0.987679 0.156493
    outer loop
      vertex 54.5 131.483 36.1632
      vertex 52.5 131.463 36.2935
      vertex 54.5 131.463 36.2935
    endloop
  endfacet
  facet normal 0 0.987679 0.156493
    outer loop
      vertex 52.5 131.463 36.2935
      vertex 54.5 131.483 36.1632
      vertex 52.5 131.483 36.1632
    endloop
  endfacet
  facet normal 0 0.995569 0.094034
    outer loop
      vertex 54.5 131.496 36.0319
      vertex 52.5 131.483 36.1632
      vertex 54.5 131.483 36.1632
    endloop
  endfacet
  facet normal 0 0.995569 0.094034
    outer loop
      vertex 52.5 131.483 36.1632
      vertex 54.5 131.496 36.0319
      vertex 52.5 131.496 36.0319
    endloop
  endfacet
  facet normal 1 0 0
    outer loop
      vertex 54.5 131.397 36.5489
      vertex 54.5 131.353 36.6731
      vertex 54.5 131.463 36.2935
    endloop
  endfacet
  facet normal 0 0.891013 0.453979
    outer loop
      vertex 54.5 131.3 36.7941
      vertex 52.5 131.24 36.9117
      vertex 54.5 131.24 36.9117
    endloop
  endfacet
  facet normal 0 0.891013 0.453979
    outer loop
      vertex 52.5 131.24 36.9117
      vertex 54.5 131.3 36.7941
      vertex 52.5 131.3 36.7941
    endloop
  endfacet
  facet normal 0 0.917783 0.397082
    outer loop
      vertex 54.5 131.353 36.6731
      vertex 52.5 131.3 36.7941
      vertex 54.5 131.3 36.7941
    endloop
  endfacet
  facet normal 0 0.917783 0.397082
    outer loop
      vertex 52.5 131.3 36.7941
      vertex 54.5 131.353 36.6731
      vertex 52.5 131.353 36.6731
    endloop
  endfacet
  facet normal 1 0 0
    outer loop
      vertex 54.5 131.173 37.0252
      vertex 54.5 131.099 37.1343
      vertex 54.5 131.463 36.2935
    endloop
  endfacet
  facet normal 0 -0.156434 -0.987688
    outer loop
      vertex 52.5 4.2065 2.5372
      vertex 54.5 4.3368 2.51656
      vertex 54.5 4.2065 2.5372
    endloop
  endfacet
  facet normal -0 -0.156434 -0.987688
    outer loop
      vertex 54.5 4.3368 2.51656
      vertex 52.5 4.2065 2.5372
      vertex 52.5 4.3368 2.51656
    endloop
  endfacet
  facet normal 0 -0.397149 -0.917754
    outer loop
      vertex 52.5 3.70586 2.69986
      vertex 54.5 3.82694 2.64747
      vertex 54.5 3.70586 2.69986
    endloop
  endfacet
  facet normal -0 -0.397149 -0.917754
    outer loop
      vertex 54.5 3.82694 2.64747
      vertex 52.5 3.70586 2.69986
      vertex 52.5 3.82694 2.64747
    endloop
  endfacet
  facet normal 0 -0.960293 -0.278992
    outer loop
      vertex 52.5 2.60278 3.95106
      vertex 54.5 2.56598 4.07775
      vertex 52.5 2.56598 4.07775
    endloop
  endfacet
  facet normal 0 -0.960293 -0.278992
    outer loop
      vertex 54.5 2.56598 4.07775
      vertex 52.5 2.60278 3.95106
      vertex 54.5 2.60278 3.95106
    endloop
  endfacet
  facet normal 0 -0.999507 -0.0314097
    outer loop
      vertex 52.5 2.50414 4.46814
      vertex 54.5 2.5 4.6
      vertex 52.5 2.5 4.6
    endloop
  endfacet
  facet normal 0 -0.999507 -0.0314097
    outer loop
      vertex 54.5 2.5 4.6
      vertex 52.5 2.50414 4.46814
      vertex 54.5 2.50414 4.46814
    endloop
  endfacet
  facet normal 1 0 0
    outer loop
      vertex 54.5 3.47476 37.6731
      vertex 54.5 3.36565 37.5989
      vertex 54.5 2.5372 36.2935
    endloop
  endfacet
  facet normal 1 0 0
    outer loop
      vertex 54.5 2.69986 36.7941
      vertex 54.5 2.64747 36.6731
      vertex 54.5 2.5372 36.2935
    endloop
  endfacet
  facet normal -0 0.562078 0.827084
    outer loop
      vertex 52.5 130.634 37.5989
      vertex 54.5 130.525 37.6731
      vertex 54.5 130.634 37.5989
    endloop
  endfacet
  facet normal 0 0.562078 0.827084
    outer loop
      vertex 54.5 130.525 37.6731
      vertex 52.5 130.634 37.5989
      vertex 52.5 130.525 37.6731
    endloop
  endfacet
  facet normal 0 0.707136 0.707078
    outer loop
      vertex 54.5 130.931 37.3375
      vertex 52.5 130.838 37.4308
      vertex 54.5 130.838 37.4308
    endloop
  endfacet
  facet normal 0 0.707136 0.707078
    outer loop
      vertex 52.5 130.838 37.4308
      vertex 54.5 130.931 37.3375
      vertex 52.5 130.931 37.3375
    endloop
  endfacet
  facet normal 0 0.750083 0.661343
    outer loop
      vertex 54.5 131.018 37.2386
      vertex 52.5 130.931 37.3375
      vertex 54.5 130.931 37.3375
    endloop
  endfacet
  facet normal 0 0.750083 0.661343
    outer loop
      vertex 52.5 130.931 37.3375
      vertex 54.5 131.018 37.2386
      vertex 52.5 131.018 37.2386
    endloop
  endfacet
  facet normal 1 0 0
    outer loop
      vertex 54.5 130.525 37.6731
      vertex 54.5 130.412 37.7402
      vertex 54.5 131.463 36.2935
    endloop
  endfacet
  facet normal -0 0.338709 0.940891
    outer loop
      vertex 52.5 130.173 37.8525
      vertex 54.5 130.049 37.8972
      vertex 54.5 130.173 37.8525
    endloop
  endfacet
  facet normal 0 0.338709 0.940891
    outer loop
      vertex 54.5 130.049 37.8972
      vertex 52.5 130.173 37.8525
      vertex 52.5 130.049 37.8972
    endloop
  endfacet
  facet normal 1 0 0
    outer loop
      vertex 54.5 130.412 37.7402
      vertex 54.5 130.294 37.8001
      vertex 54.5 131.463 36.2935
    endloop
  endfacet
  facet normal 1 0 0
    outer loop
      vertex 54.5 130.049 37.8972
      vertex 54.5 129.922 37.934
      vertex 54.5 131.463 36.2935
    endloop
  endfacet
  facet normal -0 0.0941254 0.99556
    outer loop
      vertex 52.5 129.663 37.9834
      vertex 54.5 129.532 37.9959
      vertex 54.5 129.663 37.9834
    endloop
  endfacet
  facet normal 0 0.0941254 0.99556
    outer loop
      vertex 54.5 129.532 37.9959
      vertex 52.5 129.663 37.9834
      vertex 52.5 129.532 37.9959
    endloop
  endfacet
  facet normal 0 -0.156434 0.987688
    outer loop
      vertex 52.5 4.3368 37.9834
      vertex 54.5 4.2065 37.9628
      vertex 54.5 4.3368 37.9834
    endloop
  endfacet
  facet normal 0 -0.156434 0.987688
    outer loop
      vertex 54.5 4.2065 37.9628
      vertex 52.5 4.3368 37.9834
      vertex 52.5 4.2065 37.9628
    endloop
  endfacet
  facet normal 0 -0.09412 0.995561
    outer loop
      vertex 52.5 4.46814 37.9959
      vertex 54.5 4.3368 37.9834
      vertex 54.5 4.46814 37.9959
    endloop
  endfacet
  facet normal 0 -0.09412 0.995561
    outer loop
      vertex 54.5 4.3368 37.9834
      vertex 52.5 4.46814 37.9959
      vertex 52.5 4.3368 37.9834
    endloop
  endfacet
  facet normal 0 -0.0314024 0.999507
    outer loop
      vertex 52.5 4.6 38
      vertex 54.5 4.46814 37.9959
      vertex 54.5 4.6 38
    endloop
  endfacet
  facet normal 0 -0.0314024 0.999507
    outer loop
      vertex 54.5 4.46814 37.9959
      vertex 52.5 4.6 38
      vertex 52.5 4.46814 37.9959
    endloop
  endfacet
  facet normal 1 0 0
    outer loop
      vertex 54.5 131.434 36.4222
      vertex 54.5 131.397 36.5489
      vertex 54.5 131.463 36.2935
    endloop
  endfacet
  facet normal 1 0 0
    outer loop
      vertex 54.5 131.353 36.6731
      vertex 54.5 131.3 36.7941
      vertex 54.5 131.463 36.2935
    endloop
  endfacet
  facet normal 1 0 0
    outer loop
      vertex 54.5 131.24 36.9117
      vertex 54.5 131.173 37.0252
      vertex 54.5 131.463 36.2935
    endloop
  endfacet
  facet normal 0 0.860693 0.509124
    outer loop
      vertex 54.5 131.24 36.9117
      vertex 52.5 131.173 37.0252
      vertex 54.5 131.173 37.0252
    endloop
  endfacet
  facet normal 0 0.860693 0.509124
    outer loop
      vertex 52.5 131.173 37.0252
      vertex 54.5 131.24 36.9117
      vertex 52.5 131.24 36.9117
    endloop
  endfacet
  facet normal 1 0 0
    outer loop
      vertex 54.5 131.018 37.2386
      vertex 54.5 130.931 37.3375
      vertex 54.5 131.463 36.2935
    endloop
  endfacet
  facet normal 0 -0.0941056 -0.995562
    outer loop
      vertex 52.5 4.3368 2.51656
      vertex 54.5 4.46814 2.50414
      vertex 54.5 4.3368 2.51656
    endloop
  endfacet
  facet normal -0 -0.0941056 -0.995562
    outer loop
      vertex 54.5 4.46814 2.50414
      vertex 52.5 4.3368 2.51656
      vertex 52.5 4.46814 2.50414
    endloop
  endfacet
  facet normal 0 -0.45399 -0.891007
    outer loop
      vertex 52.5 3.58832 2.75976
      vertex 54.5 3.70586 2.69986
      vertex 54.5 3.58832 2.75976
    endloop
  endfacet
  facet normal -0 -0.45399 -0.891007
    outer loop
      vertex 54.5 3.70586 2.69986
      vertex 52.5 3.58832 2.75976
      vertex 52.5 3.70586 2.69986
    endloop
  endfacet
  facet normal 0 -0.612909 -0.790154
    outer loop
      vertex 52.5 3.26141 2.98192
      vertex 54.5 3.36565 2.90106
      vertex 54.5 3.26141 2.98192
    endloop
  endfacet
  facet normal -0 -0.612909 -0.790154
    outer loop
      vertex 54.5 3.36565 2.90106
      vertex 52.5 3.26141 2.98192
      vertex 52.5 3.36565 2.90106
    endloop
  endfacet
  facet normal 0 -0.975916 -0.218147
    outer loop
      vertex 52.5 2.56598 4.07775
      vertex 54.5 2.5372 4.2065
      vertex 52.5 2.5372 4.2065
    endloop
  endfacet
  facet normal 0 -0.975916 -0.218147
    outer loop
      vertex 54.5 2.5372 4.2065
      vertex 52.5 2.56598 4.07775
      vertex 54.5 2.56598 4.07775
    endloop
  endfacet
  facet normal 1 0 0
    outer loop
      vertex 54.5 3.70586 37.8001
      vertex 54.5 3.58832 37.7402
      vertex 54.5 2.5372 36.2935
    endloop
  endfacet
  facet normal 0 -0.279005 0.96029
    outer loop
      vertex 52.5 4.07775 37.934
      vertex 54.5 3.95106 37.8972
      vertex 54.5 4.07775 37.934
    endloop
  endfacet
  facet normal 0 -0.279005 0.96029
    outer loop
      vertex 54.5 3.95106 37.8972
      vertex 52.5 4.07775 37.934
      vertex 52.5 3.95106 37.8972
    endloop
  endfacet
  facet normal 1 0 0
    outer loop
      vertex 54.5 3.06917 37.3375
      vertex 54.5 2.98192 37.2386
      vertex 54.5 2.5372 36.2935
    endloop
  endfacet
  facet normal 1 0 0
    outer loop
      vertex 54.5 2.75976 36.9117
      vertex 54.5 2.69986 36.7941
      vertex 54.5 2.5372 36.2935
    endloop
  endfacet
  facet normal 1 0 0
    outer loop
      vertex 54.5 3.36565 37.5989
      vertex 54.5 3.26141 37.5181
      vertex 54.5 2.5372 36.2935
    endloop
  endfacet
  facet normal 0 -0.975917 0.218143
    outer loop
      vertex 52.5 2.5372 36.2935
      vertex 54.5 2.56598 36.4222
      vertex 52.5 2.56598 36.4222
    endloop
  endfacet
  facet normal 0 -0.975917 0.218143
    outer loop
      vertex 54.5 2.56598 36.4222
      vertex 52.5 2.5372 36.2935
      vertex 54.5 2.5372 36.2935
    endloop
  endfacet
  facet normal -0 0.661284 0.750136
    outer loop
      vertex 52.5 130.838 37.4308
      vertex 54.5 130.739 37.5181
      vertex 54.5 130.838 37.4308
    endloop
  endfacet
  facet normal 0 0.661284 0.750136
    outer loop
      vertex 54.5 130.739 37.5181
      vertex 52.5 130.838 37.4308
      vertex 52.5 130.739 37.5181
    endloop
  endfacet
  facet normal 1 0 0
    outer loop
      vertex 54.5 130.634 37.5989
      vertex 54.5 130.525 37.6731
      vertex 54.5 131.463 36.2935
    endloop
  endfacet
  facet normal 1 0 0
    outer loop
      vertex 54.5 130.294 37.8001
      vertex 54.5 130.173 37.8525
      vertex 54.5 131.463 36.2935
    endloop
  endfacet
  facet normal -0 0.453978 0.891013
    outer loop
      vertex 52.5 130.412 37.7402
      vertex 54.5 130.294 37.8001
      vertex 54.5 130.412 37.7402
    endloop
  endfacet
  facet normal 0 0.453978 0.891013
    outer loop
      vertex 54.5 130.294 37.8001
      vertex 52.5 130.412 37.7402
      vertex 52.5 130.294 37.8001
    endloop
  endfacet
  facet normal -0 0.509025 0.860751
    outer loop
      vertex 52.5 130.525 37.6731
      vertex 54.5 130.412 37.7402
      vertex 54.5 130.525 37.6731
    endloop
  endfacet
  facet normal 0 0.509025 0.860751
    outer loop
      vertex 54.5 130.412 37.7402
      vertex 52.5 130.525 37.6731
      vertex 52.5 130.412 37.7402
    endloop
  endfacet
  facet normal 1 0 0
    outer loop
      vertex 54.5 129.532 37.9959
      vertex 54.5 129.4 38
      vertex 54.5 131.463 36.2935
    endloop
  endfacet
  facet normal 0 0.827115 0.562032
    outer loop
      vertex 54.5 131.173 37.0252
      vertex 52.5 131.099 37.1343
      vertex 54.5 131.099 37.1343
    endloop
  endfacet
  facet normal 0 0.827115 0.562032
    outer loop
      vertex 52.5 131.099 37.1343
      vertex 54.5 131.173 37.0252
      vertex 52.5 131.173 37.0252
    endloop
  endfacet
  facet normal 1 0 0
    outer loop
      vertex 54.5 131.099 37.1343
      vertex 54.5 131.018 37.2386
      vertex 54.5 131.463 36.2935
    endloop
  endfacet
  facet normal 1 0 0
    outer loop
      vertex 54.5 130.931 37.3375
      vertex 54.5 130.838 37.4308
      vertex 54.5 131.463 36.2935
    endloop
  endfacet
  facet normal 0 -0.0314097 -0.999507
    outer loop
      vertex 52.5 4.46814 2.50414
      vertex 54.5 4.6 2.5
      vertex 54.5 4.46814 2.50414
    endloop
  endfacet
  facet normal -0 -0.0314097 -0.999507
    outer loop
      vertex 54.5 4.6 2.5
      vertex 52.5 4.46814 2.50414
      vertex 52.5 4.6 2.5
    endloop
  endfacet
  facet normal 0 -0.707107 -0.707107
    outer loop
      vertex 52.5 3.16245 3.06917
      vertex 54.5 3.06917 3.16245
      vertex 52.5 3.06917 3.16245
    endloop
  endfacet
  facet normal 0 -0.707107 -0.707107
    outer loop
      vertex 54.5 3.06917 3.16245
      vertex 52.5 3.16245 3.06917
      vertex 54.5 3.16245 3.06917
    endloop
  endfacet
  facet normal 0 -0.509042 -0.860741
    outer loop
      vertex 52.5 3.47476 2.82691
      vertex 54.5 3.58832 2.75976
      vertex 54.5 3.47476 2.82691
    endloop
  endfacet
  facet normal -0 -0.509042 -0.860741
    outer loop
      vertex 54.5 3.58832 2.75976
      vertex 52.5 3.47476 2.82691
      vertex 52.5 3.58832 2.75976
    endloop
  endfacet
  facet normal 0 -0.562083 -0.827081
    outer loop
      vertex 52.5 3.36565 2.90106
      vertex 54.5 3.47476 2.82691
      vertex 54.5 3.36565 2.90106
    endloop
  endfacet
  facet normal -0 -0.562083 -0.827081
    outer loop
      vertex 54.5 3.47476 2.82691
      vertex 52.5 3.36565 2.90106
      vertex 52.5 3.47476 2.82691
    endloop
  endfacet
  facet normal 0 -0.987688 0.156436
    outer loop
      vertex 52.5 2.51656 36.1632
      vertex 54.5 2.5372 36.2935
      vertex 52.5 2.5372 36.2935
    endloop
  endfacet
  facet normal 0 -0.987688 0.156436
    outer loop
      vertex 54.5 2.5372 36.2935
      vertex 52.5 2.51656 36.1632
      vertex 54.5 2.51656 36.1632
    endloop
  endfacet
  facet normal 0 -0.987688 -0.156434
    outer loop
      vertex 52.5 2.5372 4.2065
      vertex 54.5 2.51656 4.3368
      vertex 52.5 2.51656 4.3368
    endloop
  endfacet
  facet normal 0 -0.987688 -0.156434
    outer loop
      vertex 54.5 2.51656 4.3368
      vertex 52.5 2.5372 4.2065
      vertex 54.5 2.5372 4.2065
    endloop
  endfacet
  facet normal 1 0 0
    outer loop
      vertex 54.5 3.95106 37.8972
      vertex 54.5 3.82694 37.8525
      vertex 54.5 2.5372 36.2935
    endloop
  endfacet
  facet normal 1 0 0
    outer loop
      vertex 54.5 4.07775 37.934
      vertex 54.5 3.95106 37.8972
      vertex 54.5 2.5372 36.2935
    endloop
  endfacet
  facet normal 0 -0.860738 0.509049
    outer loop
      vertex 52.5 2.75976 36.9117
      vertex 54.5 2.82691 37.0252
      vertex 52.5 2.82691 37.0252
    endloop
  endfacet
  facet normal 0 -0.860738 0.509049
    outer loop
      vertex 54.5 2.82691 37.0252
      vertex 52.5 2.75976 36.9117
      vertex 54.5 2.75976 36.9117
    endloop
  endfacet
  facet normal 0 -0.891007 0.45399
    outer loop
      vertex 52.5 2.69986 36.7941
      vertex 54.5 2.75976 36.9117
      vertex 52.5 2.75976 36.9117
    endloop
  endfacet
  facet normal 0 -0.891007 0.45399
    outer loop
      vertex 54.5 2.75976 36.9117
      vertex 52.5 2.69986 36.7941
      vertex 54.5 2.69986 36.7941
    endloop
  endfacet
  facet normal 0 -0.917754 0.397149
    outer loop
      vertex 52.5 2.64747 36.6731
      vertex 54.5 2.69986 36.7941
      vertex 52.5 2.69986 36.7941
    endloop
  endfacet
  facet normal 0 -0.917754 0.397149
    outer loop
      vertex 54.5 2.69986 36.7941
      vertex 52.5 2.64747 36.6731
      vertex 54.5 2.64747 36.6731
    endloop
  endfacet
  facet normal 1 0 0
    outer loop
      vertex 54.5 129.663 37.9834
      vertex 54.5 129.532 37.9959
      vertex 54.5 131.463 36.2935
    endloop
  endfacet
  facet normal 1 0 0
    outer loop
      vertex 54.5 130.838 37.4308
      vertex 54.5 130.739 37.5181
      vertex 54.5 131.463 36.2935
    endloop
  endfacet
  facet normal 0 -0.917754 -0.397149
    outer loop
      vertex 52.5 2.69986 3.70586
      vertex 54.5 2.64747 3.82694
      vertex 52.5 2.64747 3.82694
    endloop
  endfacet
  facet normal 0 -0.917754 -0.397149
    outer loop
      vertex 54.5 2.64747 3.82694
      vertex 52.5 2.69986 3.70586
      vertex 54.5 2.69986 3.70586
    endloop
  endfacet
  facet normal 0 -0.661311 -0.750112
    outer loop
      vertex 52.5 3.16245 3.06917
      vertex 54.5 3.26141 2.98192
      vertex 54.5 3.16245 3.06917
    endloop
  endfacet
  facet normal -0 -0.661311 -0.750112
    outer loop
      vertex 54.5 3.26141 2.98192
      vertex 52.5 3.16245 3.06917
      vertex 52.5 3.26141 2.98192
    endloop
  endfacet
  facet normal 0 -0.940883 -0.338731
    outer loop
      vertex 52.5 2.64747 3.82694
      vertex 54.5 2.60278 3.95106
      vertex 52.5 2.60278 3.95106
    endloop
  endfacet
  facet normal 0 -0.940883 -0.338731
    outer loop
      vertex 54.5 2.60278 3.95106
      vertex 52.5 2.64747 3.82694
      vertex 54.5 2.64747 3.82694
    endloop
  endfacet
  facet normal -1 0 0
    outer loop
      vertex 52.5 129.4 2.5
      vertex 52.5 131.5 4.6
      vertex 52.5 131.496 4.46814
    endloop
  endfacet
  facet normal -1 0 0
    outer loop
      vertex 52.5 131.5 4.6
      vertex 52.5 95.12 29.605
      vertex 52.5 131.5 35.9
    endloop
  endfacet
  facet normal -1 0 0
    outer loop
      vertex 52.5 129.4 2.5
      vertex 52.5 131.496 4.46814
      vertex 52.5 131.483 4.3368
    endloop
  endfacet
  facet normal -1 -0 0
    outer loop
      vertex 52.5 131.5 4.6
      vertex 52.5 129.4 2.5
      vertex 52.5 95.12 29.605
    endloop
  endfacet
  facet normal -1 0 0
    outer loop
      vertex 52.5 129.4 2.5
      vertex 52.5 131.483 4.3368
      vertex 52.5 131.463 4.2065
    endloop
  endfacet
  facet normal -1 0 -0
    outer loop
      vertex 52.5 129.4 38
      vertex 52.5 131.5 35.9
      vertex 52.5 95.12 29.605
    endloop
  endfacet
  facet normal -1 0 0
    outer loop
      vertex 52.5 129.4 2.5
      vertex 52.5 131.463 4.2065
      vertex 52.5 131.434 4.07775
    endloop
  endfacet
  facet normal -1 0 0
    outer loop
      vertex 52.5 131.496 36.0319
      vertex 52.5 129.4 38
      vertex 52.5 131.483 36.1632
    endloop
  endfacet
  facet normal -1 0 0
    outer loop
      vertex 52.5 129.4 2.5
      vertex 52.5 131.434 4.07775
      vertex 52.5 131.397 3.95106
    endloop
  endfacet
  facet normal -1 0 0
    outer loop
      vertex 52.5 131.483 36.1632
      vertex 52.5 129.4 38
      vertex 52.5 131.463 36.2935
    endloop
  endfacet
  facet normal -1 0 0
    outer loop
      vertex 52.5 129.4 2.5
      vertex 52.5 131.397 3.95106
      vertex 52.5 131.353 3.82694
    endloop
  endfacet
  facet normal -1 0 0
    outer loop
      vertex 52.5 131.463 36.2935
      vertex 52.5 129.4 38
      vertex 52.5 131.434 36.4222
    endloop
  endfacet
  facet normal -1 0 0
    outer loop
      vertex 52.5 129.4 2.5
      vertex 52.5 131.353 3.82694
      vertex 52.5 131.3 3.70586
    endloop
  endfacet
  facet normal -1 0 0
    outer loop
      vertex 52.5 131.434 36.4222
      vertex 52.5 129.4 38
      vertex 52.5 131.397 36.5489
    endloop
  endfacet
  facet normal -1 0 0
    outer loop
      vertex 52.5 129.4 2.5
      vertex 52.5 131.3 3.70586
      vertex 52.5 131.24 3.58832
    endloop
  endfacet
  facet normal -1 0 0
    outer loop
      vertex 52.5 131.397 36.5489
      vertex 52.5 129.4 38
      vertex 52.5 131.353 36.6731
    endloop
  endfacet
  facet normal -1 0 0
    outer loop
      vertex 52.5 129.4 2.5
      vertex 52.5 131.24 3.58832
      vertex 52.5 131.173 3.47476
    endloop
  endfacet
  facet normal -1 0 0
    outer loop
      vertex 52.5 131.353 36.6731
      vertex 52.5 129.4 38
      vertex 52.5 131.3 36.7941
    endloop
  endfacet
  facet normal -1 0 0
    outer loop
      vertex 52.5 129.4 2.5
      vertex 52.5 131.173 3.47476
      vertex 52.5 131.099 3.36565
    endloop
  endfacet
  facet normal -1 0 0
    outer loop
      vertex 52.5 131.3 36.7941
      vertex 52.5 129.4 38
      vertex 52.5 131.24 36.9117
    endloop
  endfacet
  facet normal -1 0 0
    outer loop
      vertex 52.5 129.4 2.5
      vertex 52.5 131.099 3.36565
      vertex 52.5 131.018 3.26141
    endloop
  endfacet
  facet normal -1 0 0
    outer loop
      vertex 52.5 131.24 36.9117
      vertex 52.5 129.4 38
      vertex 52.5 131.173 37.0252
    endloop
  endfacet
  facet normal -1 0 0
    outer loop
      vertex 52.5 129.4 2.5
      vertex 52.5 131.018 3.26141
      vertex 52.5 130.931 3.16245
    endloop
  endfacet
  facet normal -1 0 0
    outer loop
      vertex 52.5 131.173 37.0252
      vertex 52.5 129.4 38
      vertex 52.5 131.099 37.1343
    endloop
  endfacet
  facet normal -1 0 0
    outer loop
      vertex 52.5 129.4 2.5
      vertex 52.5 130.931 3.16245
      vertex 52.5 130.838 3.06917
    endloop
  endfacet
  facet normal -1 0 0
    outer loop
      vertex 52.5 131.099 37.1343
      vertex 52.5 129.4 38
      vertex 52.5 131.018 37.2386
    endloop
  endfacet
  facet normal -1 0 0
    outer loop
      vertex 52.5 129.4 2.5
      vertex 52.5 130.838 3.06917
      vertex 52.5 130.739 2.98192
    endloop
  endfacet
  facet normal -1 0 0
    outer loop
      vertex 52.5 131.018 37.2386
      vertex 52.5 129.4 38
      vertex 52.5 130.931 37.3375
    endloop
  endfacet
  facet normal -1 0 0
    outer loop
      vertex 52.5 129.4 2.5
      vertex 52.5 130.739 2.98192
      vertex 52.5 130.634 2.90106
    endloop
  endfacet
  facet normal -1 0 0
    outer loop
      vertex 52.5 130.931 37.3375
      vertex 52.5 129.4 38
      vertex 52.5 130.838 37.4308
    endloop
  endfacet
  facet normal -1 0 0
    outer loop
      vertex 52.5 129.4 2.5
      vertex 52.5 130.634 2.90106
      vertex 52.5 130.525 2.82691
    endloop
  endfacet
  facet normal -1 0 0
    outer loop
      vertex 52.5 130.838 37.4308
      vertex 52.5 129.4 38
      vertex 52.5 130.739 37.5181
    endloop
  endfacet
  facet normal -1 0 0
    outer loop
      vertex 52.5 129.4 2.5
      vertex 52.5 130.525 2.82691
      vertex 52.5 130.412 2.75976
    endloop
  endfacet
  facet normal -1 0 0
    outer loop
      vertex 52.5 130.739 37.5181
      vertex 52.5 129.4 38
      vertex 52.5 130.634 37.5989
    endloop
  endfacet
  facet normal -1 0 0
    outer loop
      vertex 52.5 129.4 2.5
      vertex 52.5 130.412 2.75976
      vertex 52.5 130.294 2.69986
    endloop
  endfacet
  facet normal -1 0 0
    outer loop
      vertex 52.5 130.634 37.5989
      vertex 52.5 129.4 38
      vertex 52.5 130.525 37.6731
    endloop
  endfacet
  facet normal -1 0 0
    outer loop
      vertex 52.5 129.4 2.5
      vertex 52.5 130.294 2.69986
      vertex 52.5 130.173 2.64747
    endloop
  endfacet
  facet normal -1 0 0
    outer loop
      vertex 52.5 130.525 37.6731
      vertex 52.5 129.4 38
      vertex 52.5 130.412 37.7402
    endloop
  endfacet
  facet normal -1 0 0
    outer loop
      vertex 52.5 129.4 2.5
      vertex 52.5 130.173 2.64747
      vertex 52.5 130.049 2.60278
    endloop
  endfacet
  facet normal -1 0 0
    outer loop
      vertex 52.5 130.412 37.7402
      vertex 52.5 129.4 38
      vertex 52.5 130.294 37.8001
    endloop
  endfacet
  facet normal -1 0 0
    outer loop
      vertex 52.5 129.4 2.5
      vertex 52.5 130.049 2.60278
      vertex 52.5 129.922 2.56598
    endloop
  endfacet
  facet normal -1 0 0
    outer loop
      vertex 52.5 130.294 37.8001
      vertex 52.5 129.4 38
      vertex 52.5 130.173 37.8525
    endloop
  endfacet
  facet normal -1 0 0
    outer loop
      vertex 52.5 129.4 2.5
      vertex 52.5 129.922 2.56598
      vertex 52.5 129.794 2.5372
    endloop
  endfacet
  facet normal -1 0 0
    outer loop
      vertex 52.5 130.173 37.8525
      vertex 52.5 129.4 38
      vertex 52.5 130.049 37.8972
    endloop
  endfacet
  facet normal -1 0 0
    outer loop
      vertex 52.5 129.4 2.5
      vertex 52.5 129.794 2.5372
      vertex 52.5 129.663 2.51656
    endloop
  endfacet
  facet normal -1 0 0
    outer loop
      vertex 52.5 130.049 37.8972
      vertex 52.5 129.4 38
      vertex 52.5 129.922 37.934
    endloop
  endfacet
  facet normal -1 0 0
    outer loop
      vertex 52.5 129.4 2.5
      vertex 52.5 129.663 2.51656
      vertex 52.5 129.532 2.50414
    endloop
  endfacet
  facet normal -1 0 0
    outer loop
      vertex 52.5 129.922 37.934
      vertex 52.5 129.4 38
      vertex 52.5 129.794 37.9628
    endloop
  endfacet
  facet normal -1 0 0
    outer loop
      vertex 52.5 129.794 37.9628
      vertex 52.5 129.4 38
      vertex 52.5 129.663 37.9834
    endloop
  endfacet
  facet normal -1 0 0
    outer loop
      vertex 52.5 129.663 37.9834
      vertex 52.5 129.4 38
      vertex 52.5 129.532 37.9959
    endloop
  endfacet
  facet normal -1 0 0
    outer loop
      vertex 52.5 131.5 35.9
      vertex 52.5 129.4 38
      vertex 52.5 131.496 36.0319
    endloop
  endfacet
  facet normal -1 0 0
    outer loop
      vertex 52.5 4.6 2.5
      vertex 52.5 95.12 29.605
      vertex 52.5 129.4 2.5
    endloop
  endfacet
  facet normal -1 -0 0
    outer loop
      vertex 52.5 95.12 29.605
      vertex 52.5 4.6 2.5
      vertex 52.5 33.7 29.605
    endloop
  endfacet
  facet normal -1 0 0
    outer loop
      vertex 52.5 2.5 4.6
      vertex 52.5 33.7 29.605
      vertex 52.5 4.6 2.5
    endloop
  endfacet
  facet normal -1 0 0
    outer loop
      vertex 52.5 2.5 35.9
      vertex 52.5 33.7 29.605
      vertex 52.5 2.5 4.6
    endloop
  endfacet
  facet normal -1 0 0
    outer loop
      vertex 52.5 2.5 4.6
      vertex 52.5 4.6 2.5
      vertex 52.5 4.46814 2.50414
    endloop
  endfacet
  facet normal -1 0 -0
    outer loop
      vertex 52.5 4.6 38
      vertex 52.5 33.7 29.605
      vertex 52.5 2.5 35.9
    endloop
  endfacet
  facet normal -1 0 0
    outer loop
      vertex 52.5 2.5 4.6
      vertex 52.5 4.46814 2.50414
      vertex 52.5 4.3368 2.51656
    endloop
  endfacet
  facet normal -1 0 0
    outer loop
      vertex 52.5 33.7 29.605
      vertex 52.5 4.6 38
      vertex 52.5 33.7 38
    endloop
  endfacet
  facet normal -1 0 0
    outer loop
      vertex 52.5 2.5 4.6
      vertex 52.5 4.3368 2.51656
      vertex 52.5 4.2065 2.5372
    endloop
  endfacet
  facet normal -1 0 0
    outer loop
      vertex 52.5 4.6 38
      vertex 52.5 2.5 35.9
      vertex 52.5 4.46814 37.9959
    endloop
  endfacet
  facet normal -1 0 0
    outer loop
      vertex 52.5 2.5 4.6
      vertex 52.5 4.2065 2.5372
      vertex 52.5 4.07775 2.56598
    endloop
  endfacet
  facet normal -1 0 0
    outer loop
      vertex 52.5 4.46814 37.9959
      vertex 52.5 2.5 35.9
      vertex 52.5 4.3368 37.9834
    endloop
  endfacet
  facet normal -1 0 0
    outer loop
      vertex 52.5 2.5 4.6
      vertex 52.5 4.07775 2.56598
      vertex 52.5 3.95106 2.60278
    endloop
  endfacet
  facet normal -1 0 0
    outer loop
      vertex 52.5 4.3368 37.9834
      vertex 52.5 2.5 35.9
      vertex 52.5 4.2065 37.9628
    endloop
  endfacet
  facet normal -1 0 0
    outer loop
      vertex 52.5 2.5 4.6
      vertex 52.5 3.95106 2.60278
      vertex 52.5 3.82694 2.64747
    endloop
  endfacet
  facet normal -1 0 0
    outer loop
      vertex 52.5 4.2065 37.9628
      vertex 52.5 2.5 35.9
      vertex 52.5 4.07775 37.934
    endloop
  endfacet
  facet normal -1 0 0
    outer loop
      vertex 52.5 2.5 4.6
      vertex 52.5 3.82694 2.64747
      vertex 52.5 3.70586 2.69986
    endloop
  endfacet
  facet normal -1 0 0
    outer loop
      vertex 52.5 4.07775 37.934
      vertex 52.5 2.5 35.9
      vertex 52.5 3.95106 37.8972
    endloop
  endfacet
  facet normal -1 0 0
    outer loop
      vertex 52.5 2.5 4.6
      vertex 52.5 3.70586 2.69986
      vertex 52.5 3.58832 2.75976
    endloop
  endfacet
  facet normal -1 0 0
    outer loop
      vertex 52.5 3.95106 37.8972
      vertex 52.5 2.5 35.9
      vertex 52.5 3.82694 37.8525
    endloop
  endfacet
  facet normal -1 0 0
    outer loop
      vertex 52.5 2.5 4.6
      vertex 52.5 3.58832 2.75976
      vertex 52.5 3.47476 2.82691
    endloop
  endfacet
  facet normal -1 0 0
    outer loop
      vertex 52.5 3.82694 37.8525
      vertex 52.5 2.5 35.9
      vertex 52.5 3.70586 37.8001
    endloop
  endfacet
  facet normal -1 0 0
    outer loop
      vertex 52.5 2.5 4.6
      vertex 52.5 3.47476 2.82691
      vertex 52.5 3.36565 2.90106
    endloop
  endfacet
  facet normal -1 0 0
    outer loop
      vertex 52.5 3.70586 37.8001
      vertex 52.5 2.5 35.9
      vertex 52.5 3.58832 37.7402
    endloop
  endfacet
  facet normal -1 0 0
    outer loop
      vertex 52.5 2.5 4.6
      vertex 52.5 3.36565 2.90106
      vertex 52.5 3.26141 2.98192
    endloop
  endfacet
  facet normal -1 0 0
    outer loop
      vertex 52.5 3.58832 37.7402
      vertex 52.5 2.5 35.9
      vertex 52.5 3.47476 37.6731
    endloop
  endfacet
  facet normal -1 0 0
    outer loop
      vertex 52.5 2.5 4.6
      vertex 52.5 3.26141 2.98192
      vertex 52.5 3.16245 3.06917
    endloop
  endfacet
  facet normal -1 0 0
    outer loop
      vertex 52.5 3.47476 37.6731
      vertex 52.5 2.5 35.9
      vertex 52.5 3.36565 37.5989
    endloop
  endfacet
  facet normal -1 0 0
    outer loop
      vertex 52.5 2.5 4.6
      vertex 52.5 3.16245 3.06917
      vertex 52.5 3.06917 3.16245
    endloop
  endfacet
  facet normal -1 0 0
    outer loop
      vertex 52.5 3.36565 37.5989
      vertex 52.5 2.5 35.9
      vertex 52.5 3.26141 37.5181
    endloop
  endfacet
  facet normal -1 0 0
    outer loop
      vertex 52.5 2.5 4.6
      vertex 52.5 3.06917 3.16245
      vertex 52.5 2.98192 3.26141
    endloop
  endfacet
  facet normal -1 0 0
    outer loop
      vertex 52.5 3.26141 37.5181
      vertex 52.5 2.5 35.9
      vertex 52.5 3.16245 37.4308
    endloop
  endfacet
  facet normal -1 0 0
    outer loop
      vertex 52.5 2.5 4.6
      vertex 52.5 2.98192 3.26141
      vertex 52.5 2.90106 3.36565
    endloop
  endfacet
  facet normal -1 0 0
    outer loop
      vertex 52.5 3.16245 37.4308
      vertex 52.5 2.5 35.9
      vertex 52.5 3.06917 37.3375
    endloop
  endfacet
  facet normal -1 0 0
    outer loop
      vertex 52.5 2.5 4.6
      vertex 52.5 2.90106 3.36565
      vertex 52.5 2.82691 3.47476
    endloop
  endfacet
  facet normal -1 0 0
    outer loop
      vertex 52.5 3.06917 37.3375
      vertex 52.5 2.5 35.9
      vertex 52.5 2.98192 37.2386
    endloop
  endfacet
  facet normal -1 0 0
    outer loop
      vertex 52.5 2.5 4.6
      vertex 52.5 2.82691 3.47476
      vertex 52.5 2.75976 3.58832
    endloop
  endfacet
  facet normal -1 0 0
    outer loop
      vertex 52.5 2.98192 37.2386
      vertex 52.5 2.5 35.9
      vertex 52.5 2.90106 37.1343
    endloop
  endfacet
  facet normal -1 0 0
    outer loop
      vertex 52.5 2.5 4.6
      vertex 52.5 2.75976 3.58832
      vertex 52.5 2.69986 3.70586
    endloop
  endfacet
  facet normal -1 0 0
    outer loop
      vertex 52.5 2.90106 37.1343
      vertex 52.5 2.5 35.9
      vertex 52.5 2.82691 37.0252
    endloop
  endfacet
  facet normal -1 0 0
    outer loop
      vertex 52.5 2.5 4.6
      vertex 52.5 2.69986 3.70586
      vertex 52.5 2.64747 3.82694
    endloop
  endfacet
  facet normal -1 0 0
    outer loop
      vertex 52.5 2.82691 37.0252
      vertex 52.5 2.5 35.9
      vertex 52.5 2.75976 36.9117
    endloop
  endfacet
  facet normal -1 0 0
    outer loop
      vertex 52.5 2.5 4.6
      vertex 52.5 2.64747 3.82694
      vertex 52.5 2.60278 3.95106
    endloop
  endfacet
  facet normal -1 0 0
    outer loop
      vertex 52.5 2.75976 36.9117
      vertex 52.5 2.5 35.9
      vertex 52.5 2.69986 36.7941
    endloop
  endfacet
  facet normal -1 0 0
    outer loop
      vertex 52.5 2.5 4.6
      vertex 52.5 2.60278 3.95106
      vertex 52.5 2.56598 4.07775
    endloop
  endfacet
  facet normal -1 0 0
    outer loop
      vertex 52.5 2.69986 36.7941
      vertex 52.5 2.5 35.9
      vertex 52.5 2.64747 36.6731
    endloop
  endfacet
  facet normal -1 0 0
    outer loop
      vertex 52.5 2.5 4.6
      vertex 52.5 2.56598 4.07775
      vertex 52.5 2.5372 4.2065
    endloop
  endfacet
  facet normal -1 0 0
    outer loop
      vertex 52.5 2.64747 36.6731
      vertex 52.5 2.5 35.9
      vertex 52.5 2.60278 36.5489
    endloop
  endfacet
  facet normal -1 0 0
    outer loop
      vertex 52.5 2.5 4.6
      vertex 52.5 2.5372 4.2065
      vertex 52.5 2.51656 4.3368
    endloop
  endfacet
  facet normal -1 0 0
    outer loop
      vertex 52.5 2.60278 36.5489
      vertex 52.5 2.5 35.9
      vertex 52.5 2.56598 36.4222
    endloop
  endfacet
  facet normal -1 0 0
    outer loop
      vertex 52.5 2.5 4.6
      vertex 52.5 2.51656 4.3368
      vertex 52.5 2.50414 4.46814
    endloop
  endfacet
  facet normal -1 0 0
    outer loop
      vertex 52.5 2.56598 36.4222
      vertex 52.5 2.5 35.9
      vertex 52.5 2.5372 36.2935
    endloop
  endfacet
  facet normal -1 0 0
    outer loop
      vertex 52.5 2.5372 36.2935
      vertex 52.5 2.5 35.9
      vertex 52.5 2.51656 36.1632
    endloop
  endfacet
  facet normal -1 0 0
    outer loop
      vertex 52.5 2.51656 36.1632
      vertex 52.5 2.5 35.9
      vertex 52.5 2.50414 36.0319
    endloop
  endfacet
  facet normal -1 -0 0
    outer loop
      vertex 52.5 129.4 38
      vertex 52.5 95.12 29.605
      vertex 52.5 95.12 38
    endloop
  endfacet
  facet normal 0 -0.995562 -0.0941056
    outer loop
      vertex 52.5 2.51656 4.3368
      vertex 54.5 2.50414 4.46814
      vertex 52.5 2.50414 4.46814
    endloop
  endfacet
  facet normal 0 -0.995562 -0.0941056
    outer loop
      vertex 54.5 2.50414 4.46814
      vertex 52.5 2.51656 4.3368
      vertex 54.5 2.51656 4.3368
    endloop
  endfacet
  facet normal 0 -0.397155 0.917751
    outer loop
      vertex 52.5 3.82694 37.8525
      vertex 54.5 3.70586 37.8001
      vertex 54.5 3.82694 37.8525
    endloop
  endfacet
  facet normal 0 -0.397155 0.917751
    outer loop
      vertex 54.5 3.70586 37.8001
      vertex 52.5 3.82694 37.8525
      vertex 52.5 3.70586 37.8001
    endloop
  endfacet
  facet normal 1 0 0
    outer loop
      vertex 54.5 3.58832 37.7402
      vertex 54.5 3.47476 37.6731
      vertex 54.5 2.5372 36.2935
    endloop
  endfacet
  facet normal 1 0 0
    outer loop
      vertex 54.5 3.82694 37.8525
      vertex 54.5 3.70586 37.8001
      vertex 54.5 2.5372 36.2935
    endloop
  endfacet
  facet normal 1 0 0
    outer loop
      vertex 54.5 2.82691 37.0252
      vertex 54.5 2.75976 36.9117
      vertex 54.5 2.5372 36.2935
    endloop
  endfacet
  facet normal 1 0 0
    outer loop
      vertex 54.5 2.90106 37.1343
      vertex 54.5 2.82691 37.0252
      vertex 54.5 2.5372 36.2935
    endloop
  endfacet
  facet normal 0 -0.661323 0.750101
    outer loop
      vertex 52.5 3.26141 37.5181
      vertex 54.5 3.16245 37.4308
      vertex 54.5 3.26141 37.5181
    endloop
  endfacet
  facet normal 0 -0.661323 0.750101
    outer loop
      vertex 54.5 3.16245 37.4308
      vertex 52.5 3.26141 37.5181
      vertex 52.5 3.16245 37.4308
    endloop
  endfacet
  facet normal 0 -0.562088 0.827077
    outer loop
      vertex 52.5 3.47476 37.6731
      vertex 54.5 3.36565 37.5989
      vertex 54.5 3.47476 37.6731
    endloop
  endfacet
  facet normal 0 -0.562088 0.827077
    outer loop
      vertex 54.5 3.36565 37.5989
      vertex 52.5 3.47476 37.6731
      vertex 52.5 3.36565 37.5989
    endloop
  endfacet
  facet normal 0 -0.827078 0.562087
    outer loop
      vertex 52.5 2.82691 37.0252
      vertex 54.5 2.90106 37.1343
      vertex 52.5 2.90106 37.1343
    endloop
  endfacet
  facet normal 0 -0.827078 0.562087
    outer loop
      vertex 54.5 2.90106 37.1343
      vertex 52.5 2.82691 37.0252
      vertex 54.5 2.82691 37.0252
    endloop
  endfacet
  facet normal 0 -0.940883 0.338731
    outer loop
      vertex 52.5 2.60278 36.5489
      vertex 54.5 2.64747 36.6731
      vertex 52.5 2.64747 36.6731
    endloop
  endfacet
  facet normal 0 -0.940883 0.338731
    outer loop
      vertex 54.5 2.64747 36.6731
      vertex 52.5 2.60278 36.5489
      vertex 54.5 2.60278 36.5489
    endloop
  endfacet
  facet normal 0 -0.995562 0.0941056
    outer loop
      vertex 52.5 2.50414 36.0319
      vertex 54.5 2.51656 36.1632
      vertex 52.5 2.51656 36.1632
    endloop
  endfacet
  facet normal 0 -0.995562 0.0941056
    outer loop
      vertex 54.5 2.51656 36.1632
      vertex 52.5 2.50414 36.0319
      vertex 54.5 2.50414 36.0319
    endloop
  endfacet
  facet normal 0 -0.860741 -0.509042
    outer loop
      vertex 52.5 2.82691 3.47476
      vertex 54.5 2.75976 3.58832
      vertex 52.5 2.75976 3.58832
    endloop
  endfacet
  facet normal 0 -0.860741 -0.509042
    outer loop
      vertex 54.5 2.75976 3.58832
      vertex 52.5 2.82691 3.47476
      vertex 54.5 2.82691 3.47476
    endloop
  endfacet
  facet normal 0 -0.891007 -0.45399
    outer loop
      vertex 52.5 2.75976 3.58832
      vertex 54.5 2.69986 3.70586
      vertex 52.5 2.69986 3.70586
    endloop
  endfacet
  facet normal 0 -0.891007 -0.45399
    outer loop
      vertex 54.5 2.69986 3.70586
      vertex 52.5 2.75976 3.58832
      vertex 54.5 2.75976 3.58832
    endloop
  endfacet
  facet normal 0 -0.750112 -0.661311
    outer loop
      vertex 52.5 3.06917 3.16245
      vertex 54.5 2.98192 3.26141
      vertex 52.5 2.98192 3.26141
    endloop
  endfacet
  facet normal 0 -0.750112 -0.661311
    outer loop
      vertex 54.5 2.98192 3.26141
      vertex 52.5 3.06917 3.16245
      vertex 54.5 3.06917 3.16245
    endloop
  endfacet
  facet normal 0 -0.790154 -0.612909
    outer loop
      vertex 52.5 2.98192 3.26141
      vertex 54.5 2.90106 3.36565
      vertex 52.5 2.90106 3.36565
    endloop
  endfacet
  facet normal 0 -0.790154 -0.612909
    outer loop
      vertex 54.5 2.90106 3.36565
      vertex 52.5 2.98192 3.26141
      vertex 54.5 2.98192 3.26141
    endloop
  endfacet
  facet normal 0 -0.338718 0.940888
    outer loop
      vertex 52.5 3.95106 37.8972
      vertex 54.5 3.82694 37.8525
      vertex 54.5 3.95106 37.8972
    endloop
  endfacet
  facet normal 0 -0.338718 0.940888
    outer loop
      vertex 54.5 3.82694 37.8525
      vertex 52.5 3.95106 37.8972
      vertex 52.5 3.82694 37.8525
    endloop
  endfacet
  facet normal 0 -0.6129 0.790161
    outer loop
      vertex 52.5 3.36565 37.5989
      vertex 54.5 3.26141 37.5181
      vertex 54.5 3.36565 37.5989
    endloop
  endfacet
  facet normal 0 -0.6129 0.790161
    outer loop
      vertex 54.5 3.26141 37.5181
      vertex 52.5 3.36565 37.5989
      vertex 52.5 3.26141 37.5181
    endloop
  endfacet
  facet normal 0 -0.509032 0.860748
    outer loop
      vertex 52.5 3.58832 37.7402
      vertex 54.5 3.47476 37.6731
      vertex 54.5 3.58832 37.7402
    endloop
  endfacet
  facet normal 0 -0.509032 0.860748
    outer loop
      vertex 54.5 3.47476 37.6731
      vertex 52.5 3.58832 37.7402
      vertex 52.5 3.47476 37.6731
    endloop
  endfacet
  facet normal 0 -0.454002 0.891001
    outer loop
      vertex 52.5 3.70586 37.8001
      vertex 54.5 3.58832 37.7402
      vertex 54.5 3.70586 37.8001
    endloop
  endfacet
  facet normal 0 -0.454002 0.891001
    outer loop
      vertex 54.5 3.58832 37.7402
      vertex 52.5 3.70586 37.8001
      vertex 52.5 3.58832 37.7402
    endloop
  endfacet
  facet normal 0 -0.790162 0.612898
    outer loop
      vertex 52.5 2.90106 37.1343
      vertex 54.5 2.98192 37.2386
      vertex 52.5 2.98192 37.2386
    endloop
  endfacet
  facet normal 0 -0.790162 0.612898
    outer loop
      vertex 54.5 2.98192 37.2386
      vertex 52.5 2.90106 37.1343
      vertex 54.5 2.90106 37.1343
    endloop
  endfacet
  facet normal 0 -0.750108 0.661315
    outer loop
      vertex 52.5 2.98192 37.2386
      vertex 54.5 3.06917 37.3375
      vertex 52.5 3.06917 37.3375
    endloop
  endfacet
  facet normal 0 -0.750108 0.661315
    outer loop
      vertex 54.5 3.06917 37.3375
      vertex 52.5 2.98192 37.2386
      vertex 54.5 2.98192 37.2386
    endloop
  endfacet
  facet normal 1 0 0
    outer loop
      vertex 54.5 3.16245 37.4308
      vertex 54.5 3.06917 37.3375
      vertex 54.5 2.5372 36.2935
    endloop
  endfacet
  facet normal 1 0 0
    outer loop
      vertex 54.5 3.26141 37.5181
      vertex 54.5 3.16245 37.4308
      vertex 54.5 2.5372 36.2935
    endloop
  endfacet
  facet normal 1 0 0
    outer loop
      vertex 54.5 2.60278 36.5489
      vertex 54.5 2.56598 36.4222
      vertex 54.5 2.5372 36.2935
    endloop
  endfacet
  facet normal 1 0 0
    outer loop
      vertex 54.5 2.64747 36.6731
      vertex 54.5 2.60278 36.5489
      vertex 54.5 2.5372 36.2935
    endloop
  endfacet
  facet normal 0 -0.960293 0.278994
    outer loop
      vertex 52.5 2.56598 36.4222
      vertex 54.5 2.60278 36.5489
      vertex 52.5 2.60278 36.5489
    endloop
  endfacet
  facet normal 0 -0.960293 0.278994
    outer loop
      vertex 54.5 2.60278 36.5489
      vertex 52.5 2.56598 36.4222
      vertex 54.5 2.56598 36.4222
    endloop
  endfacet
  facet normal 0 -0.999507 0.031409
    outer loop
      vertex 52.5 2.5 35.9
      vertex 54.5 2.50414 36.0319
      vertex 52.5 2.50414 36.0319
    endloop
  endfacet
  facet normal 0 -0.999507 0.031409
    outer loop
      vertex 54.5 2.50414 36.0319
      vertex 52.5 2.5 35.9
      vertex 54.5 2.5 35.9
    endloop
  endfacet
  facet normal 0 -0.827081 -0.562083
    outer loop
      vertex 52.5 2.90106 3.36565
      vertex 54.5 2.82691 3.47476
      vertex 52.5 2.82691 3.47476
    endloop
  endfacet
  facet normal 0 -0.827081 -0.562083
    outer loop
      vertex 54.5 2.82691 3.47476
      vertex 52.5 2.90106 3.36565
      vertex 54.5 2.90106 3.36565
    endloop
  endfacet
endsolid OpenSCAD_Model
